<?xml version="1.0" encoding="UTF-8"?>
<svg id="Layer_1" data-name="Layer 1" xmlns="http://www.w3.org/2000/svg" viewBox="0 0 402.17 296">
  <defs>
    <style>
      .cls-1 {
        fill: #f9b81b;
      }

      .cls-2 {
        fill: #f26232;
      }

      .cls-3 {
        fill: #fffefe;
      }

      .cls-4 {
        fill: #8c1121;
      }

      .cls-5 {
        fill: #ab172a;
      }

      .cls-6 {
        fill: #e01d29;
      }
    </style>
  </defs>
  <path class="cls-3" d="M0,40H256V296H0V40Zm210.66,53.69c.16-.56,.07-1.14,.08-1.71,.01-1.8,0-3.59,0-5.39,0-.51-.02-.53-.5-.57-1.18-.09-2.36-.16-3.54-.24-.64-.27-1.35-.1-2.05-.29-.19-1.06-.29-2.1-.25-3.17,1.09-.58,2.07-1.3,2.9-2.22,1.06-1.19,1.32-2.55,.91-4.07-.09-.33-.19-.66-.33-.98-.92-2.04-2.15-3.88-3.65-5.53-.17-2.95-.35-4.4-.7-5.27-.13,.22-.25,.41-.36,.6-.69,1.23-1.37,2.47-2.06,3.7-.17,.29-.26,.65-.6,.81-1.11-1.82-1.8-3.83-2.56-5.8-1.24-3.19-2.47-6.39-3.7-9.59-.07-.19-.09-.46-.43-.43-1.57,5.47-3.15,10.94-4.72,16.42-.23,.35-.47,.69-.69,1.05-.84,1.38-1.79,2.69-2.92,3.86-.93,.97-1.95,1.84-3.07,2.59-.4-.47-.8-.94-1.19-1.42-3.22-3.94-6.44-7.88-9.66-11.81-.28-.35-.53-.74-.98-1.06-.45,1.31-.68,2.59-1.01,3.84-.34,1.3-.65,2.62-.98,3.92-.32,1.26-.56,2.54-1.04,3.95-3.03-3.59-5.93-7.08-8.85-10.56-2.92-3.48-5.83-6.97-8.82-10.53-4.04,6.87-8.02,13.63-12.04,20.45-.48-.27-.92-.5-1.34-.75-12.25-7.28-24.55-14.48-36.88-21.63-1.5-.87-2.97-1.78-4.54-2.53l-.08,.04c-.04-.16-.17-.21-.3-.26-.16-.1-.32-.22-.49-.28-3.69-1.43-7.38-2.85-11.07-4.26-.28-.11-.58-.18-.88-.27-.08-.1-.16-.15-.26-.02,0,0,.09,.08,.14,.13-.02,.3,.19,.5,.33,.72,1.23,2,2.48,4,3.71,5.99,9.59,15.46,19.17,30.91,28.76,46.37,.14,.23,.28,.46,.42,.69,.21,.34,.26,.7,.12,1.08-.44,0-.64-.32-.9-.53-6.53-5.23-13.05-10.46-19.58-15.69-.24-.19-.49-.38-.73-.57-.19-.15-.35-.08-.51,.05-.16,.13-.26,.28-.12,.49,.17,.26,.35,.51,.52,.76,2.99,4.3,5.99,8.6,8.98,12.9,2.73,3.92,5.46,7.84,8.19,11.77,.21,.3,.56,.55,.5,1-1.26-.18-2.52-.36-3.77-.55-2.97-.44-5.94-.89-8.92-1.32-.74-.11-1.38-.35-1.97-.84-3.46-2.83-6.97-5.61-10.42-8.45-1.52-1.26-3.12-2.38-4.87-3.29-1.2-.63-2.27-1.43-3.25-2.38-1.72-1.67-3.74-2.85-6.04-3.49-1.98-.56-4.02-.79-6.07-.65-2.65,.17-5.3,.47-7.94,.72-2.5,.23-4.99,.26-7.48,.01,.06,.19,.22,.27,.4,.36,3.74,1.82,7.47,3.65,11.21,5.48,2.8,1.37,5.61,2.74,8.4,4.11,.26,.13,.61,.18,.66,.56-6.84-.14-16.11-.08-17.18,.12,1.12,.81,2.28,1.46,3.52,1.95,1.07,.43,2.16,.81,3.25,1.19,1.63,.57,3.29,1.07,4.85,1.82,1.43,.68,2.76,1.52,3.88,2.66,.16,.16,.35,.31,.29,.59-.63-.03-1.2-.28-1.75-.55-.45-.22-.89-.47-1.34-.68-.56-.27-1.16-.48-1.79-.33-.51,.12-.8-.07-1.08-.44-.19-.24-.4-.5-.75-.46-.46,.05-.82-.09-1.11-.45-.12-.15-.35-.18-.54-.12-.8,.25-1.61,.05-2.41,.05-3.28,0-6.56-.02-9.84-.03-2.82-.01-5.63-.03-8.45-.04-.8,0-1.58,.05-2.35,.41,.09,.15,.13,.26,.21,.33,2.92,2.81,5.84,5.61,8.76,8.41,3.34,3.21,6.67,6.41,10.01,9.62,2.86,2.75,5.73,5.5,8.59,8.26,1.14,1.1,2.28,2.19,3.41,3.29,.21,.2,.52,.37,.45,.75-.92,.1-1.84,.19-2.75,.31-2.6,.35-5.19,.71-7.79,1.06-3.17,.42-6.34,.82-9.51,1.24-3.7,.5-7.4,1.02-11.11,1.52-3.7,.5-7.41,.98-11.11,1.49-3.59,.49-7.17,1.02-10.76,1.52-3.97,.56-7.94,1.1-11.9,1.65-.15,.02-.31,0-.33,.41,.17,.14,.45,.34,.7,.57,3.41,3.18,6.83,6.35,10.23,9.54,6.31,5.89,12.7,11.7,19.11,17.47,3.32,2.99,6.65,5.98,9.97,8.97,.34,.3,.76,.54,.94,1-.06,.1-.13,.19-.19,.29-3.16,5.44-6.32,10.88-9.48,16.33-.17,.3-.3,.62-.45,.93-.11,.15-.24,.3-.33,.47-4.9,8.52-9.79,17.04-14.69,25.56-.13,.23-.33,.43-.29,.81,.45-.11,.89-.2,1.33-.31,10.97-2.92,21.94-5.85,32.92-8.77,.52-.14,1.01-.39,1.57-.33-.24,.34-.47,.7-.72,1.03-1.52,1.94-3.04,3.88-4.56,5.82-.23,.3-.55,.54-.62,.95,.29,.1,.53-.01,.79-.08,4.31-1.16,8.62-2.29,12.92-3.46,4.94-1.33,9.91-2.55,14.97-3.29,.72-.11,1.42-.37,2.17-.27-.09,.17-.17,.35-.26,.51-2,3.41-4.64,6.22-7.86,8.51-2.77,1.98-5.79,3.52-8.93,4.8-2.24,.92-4.53,1.72-6.77,2.64-5.73,2.37-11.27,5.15-16.89,7.75-.09,.04-.23,.08-.15,.29,.36,0,.73,0,1.11,0,15.26,0,30.52,0,45.79,0,.19,0,.39-.02,.58,0,.51,.06,.89-.09,1.1-.6,.15-.35,.35-.69,.67-.93,.67-.05,1.09-.53,1.55-.94,6.45-5.8,12.89-11.6,19.34-17.4,4.13-3.71,8.26-7.42,12.4-11.11,.3-.27,.53-.67,1-.73,0,.11,.04,.24,.01,.34-.68,2.09-1.37,4.17-2.04,6.26-.08,.26-.24,.4-.5,.38-.6-.05-.92,.29-1.15,.78-.05,.1-.11,.2-.17,.3-5.82,10.13-11.64,20.25-17.45,30.38-1.32,2.31-2.66,4.61-3.97,6.92-.21,.38-.46,.59-.91,.5-.21-.09-.42-.19-.64-.25-1.54-.48-3.1-.93-4.63-1.44-1.2-.4-.88-.06-1.44-1.28-.03-.06-.09-.1-.14-.15-.12,.21-.23,.43-.53,.31-.25-.1-.5-.21-.74-.31-6.22-2.69-12.44-5.38-18.65-8.07-.25-.11-.49-.22-.74-.33-.26-.11-.43-.02-.54,.25-.1,.25-.22,.49-.33,.74-1.77,4.14-3.54,8.28-5.32,12.43-2.77,6.48-5.55,12.96-8.32,19.44-.11,.26-.29,.51-.26,.92,.43-.18,.78-.31,1.13-.46,10.57-4.64,21.15-9.28,31.72-13.92,1.33-.58,1.2-.68,1.3,.82,.12,1.65,.23,3.3,.34,4.95-.07,.43-.32,.78-.52,1.15-3.08,5.48-6.17,10.95-9.23,16.43-.41,.73-.95,1.4-1.14,2.24,.85,.34,1.73,.07,2.59,.16,.52,.05,.97-.13,1.4-.41,2.42-1.59,4.99-2.92,7.56-4.24,11.61-5.98,23.15-12.1,34.63-18.33,10.16-5.51,20.32-11.03,30.14-17.15,.32-.2,.7-.31,.92-.66,.51-.78,.75-1.67,.98-2.55,.93-3.58,1.85-7.16,2.76-10.74,1.63-6.38,3.26-12.76,4.88-19.14,.33-1.3,.75-2.59,.95-3.93,.17-.5,.59-.78,.98-1.09,3.06-2.45,6.13-4.91,9.2-7.36,.27-.21,.5-.48,.87-.55-.06,.65-.11,1.31-.17,1.96-.46,4.81-1.43,9.52-2.76,14.16-2.06,7.18-5.01,13.99-8.38,20.64-2.11,4.16-4.37,8.24-6.69,12.29-3.33,5.82-6.69,11.63-9.98,17.47-2.72,4.84-5.25,9.78-7.5,14.85-.1,.23-.32,.44-.17,.74,.35-.09,.6-.34,.88-.53,2.75-1.92,5.49-3.86,8.24-5.78,12.79-8.96,25.53-17.99,38.13-27.21,1.59-1.16,3.22-2.26,4.92-3.25,.9-.53,1.78-1.08,2.64-1.66,.77-.51,1.5-1.09,2.11-1.79,.54-.62,.88-1.32,1.02-2.16,.57-3.57,.5-7.15,.32-10.73-.19-3.62-.55-7.23-.59-10.85-.04-3.43,0-6.86,.22-10.29,.34,.18,.69,.34,1.02,.54,4.75,2.78,9.51,5.56,14.26,8.34,5.05,2.96,10.1,5.91,15.16,8.86,.31,.18,.6,.47,1.07,.43v-.95c0-20.15,0-40.31,0-60.46,0-.38-.05-.77-.07-1.15,0-.19,.02-.38,0-.57-.12-3.07,.88-5.73,2.87-8.05,.45-.52,.94-1.01,1.41-1.51,.44-.3,.9-.13,1.34-.04,2.75,.56,5.5,1.15,8.25,1.7,.75,.15,1.49,.41,2.3,.37,.18-.8,.04-1.61,.09-2.41,.03-.44-.17-.7-.51-.94-.97-.7-1.92-1.41-2.86-2.16-.88-.7-1.65-1.51-2.29-2.43-.24-.34-.54-.66-.58-1.11,.49-.2,1.03-.31,1.35-.79-.26-.56-.57-1.08-1.06-1.48-.18-.15-.38-.26-.57-.39-2.14-1.43-4.29-2.86-6.42-4.3-4.56-3.07-9.19-6.05-13.66-9.26-.69-.49-1.38-.98-2.07-1.47,.29-.21,.63-.28,.96-.37,2.16-.55,4.32-1.1,6.47-1.66,1.49-.38,2.97-.76,4.46-1.15,.61-.16,.67-.28,.33-.76-1.47-2.07-2.95-4.13-4.43-6.19,.25-.33,.66-.37,1.01-.49,4.19-1.43,8.31-3.05,12.42-4.69,.32-.13,.67-.19,.92-.46-.41-.59-2.16-2.36-3.15-3.18-.23-.48-.83-.69-.98-1.29,.41-.17,.8-.34,1.19-.5,1.82-.73,3.65-1.46,5.48-2.17,.45-.18,.66-.45,.69-.94,.09-1.27,.21-2.53,.34-3.8,.2-2.03,.42-4.06,.62-6.09,.18-1.8,.35-3.6,.54-5.41,.2-1.95,.4-3.91,.61-5.86,.21-2.03,.42-4.06,.62-6.09,.12-1.23,.23-2.46,.33-3.68,.02-.2,.15-.48-.13-.6-.2-.09-.34,.12-.49,.23-.13,.08-.24,.19-.36,.28-3.61,2.77-7.22,5.54-10.83,8.3-.25,.19-.48,.49-.9,.45-1.66-7.1-3.31-14.18-4.99-21.36-.39,.31-.44,.66-.55,.97-4.26,12.06-8.52,24.12-12.78,36.19-1.14,3.23-2.3,6.46-3.42,9.7-.2,.58-.52,.87-1.09,1.04-2.28,.7-4.55,1.44-6.83,2.17-.21,.07-.42,.2-.65-.03-.09-.94,.12-1.89,.19-2.85,.63-.41,1.01-1.03,1.37-1.67,1.21-2.15,2.08-4.44,2.78-6.8,.83-2.8,1.43-5.65,2.09-8.49,.17-.74,.47-1.46,.48-2.24ZM48.4,263.07c-.47-.33-.75-.53-1.04-.72-6.69-4.48-13.39-8.96-20.08-13.44-.71-.48-.7-.52-1.17,.33-4.56,8.31-9.12,16.61-13.69,24.92-.12,.22-.31,.42-.29,.68,.12,.11,.24,.07,.34,.03,11.92-3.91,23.83-7.83,35.91-11.8Zm-10.67-182.58c-6.23,2.06-12.25,4.05-18.27,6.04-1.64,.54-3.28,1.1-4.92,1.65-.04,.01-.08,.03-.1,.06-.01,.03,0,.07,.02,.11,.66,.53,16.95,10.14,18.1,10.68,.06-.13,.15-.26,.19-.41,1.64-5.97,3.28-11.94,4.98-18.12Zm30.52,2.39c-.09-.19-.27-.38-.43-.58-4.36-5.2-8.73-10.4-13.09-15.6-.12-.15-.25-.3-.38-.43-.11-.12-.31-.07-.36,.1-.51,1.41-1.01,2.83-1.51,4.25-.82,2.29-1.64,4.57-2.46,6.85-.15,.42-.09,.55,.32,.71,2.76,1.08,5.51,2.19,8.29,3.21,2.21,.81,4.51,1.32,6.85,1.58,.77,.08,1.54,.08,2.31,.1,.14,0,.31,.05,.47-.18Z"/>
  <path class="cls-6" d="M81.43,218.48c-.75-.1-1.45,.17-2.17,.27-5.07,.75-10.03,1.96-14.97,3.29-4.3,1.16-8.61,2.3-12.92,3.46-.26,.07-.51,.18-.79,.08,.07-.4,.39-.65,.62-.95,1.51-1.95,3.04-3.88,4.56-5.82,.26-.33,.48-.69,.72-1.03,.57-.31,1.14-.59,1.64-1.03,1.06-.95,1.92-2.05,2.73-3.21,.63-.91,1.26-1.81,2.08-2.57,.19-.18,.34-.41,.5-.61,1.21-1.5,2.42-2.99,3.62-4.49,1.29-1.63,2.55-3.28,3.84-4.9,1.39-1.74,2.82-3.46,4.21-5.2,1.91-2.41,3.79-4.84,5.71-7.25,1.94-2.44,3.92-4.84,5.83-7.3,.47-.6,1.07-1.12,1.36-1.86,.23-.04,.46-.05,.67-.13,2.27-.75,4.6-1.17,6.99-1.27,.12,0,.24,0,.34-.03,.78-.29,1.6-.16,2.4-.2,.38-.02,.79,.05,1.15-.06,.57-.18,1.14-.15,1.72-.16,.85-.01,1.72,.11,2.54-.06,1.37-.29,2.76-.1,4.12-.37,.78-.15,1.59-.23,2.38-.36,1.59-.27,3.13-.73,4.65-1.28,2.2-.79,4.17-1.95,5.97-3.43,.59-.49,1.19-.97,1.83-1.39,1.58-1.04,3.26-1.89,5-2.63,.6-.25,1.18-.56,1.75-.89,1.69-1,3.35-2.04,5.04-3.02,1.6-.92,3.23-1.79,4.85-2.68,.81-.45,1.62-.89,2.42-1.34,1.17-.66,2.33-1.35,3.52-1.97,1.74-.9,3.45-1.87,5.06-3,.82-.58,1.61-1.18,2.29-1.92,.66-.72,1.19-1.51,1.48-2.45,.27-.88,.41-1.74,.26-2.69-.22-1.36-.75-2.57-1.39-3.76-.12-.23-.33-.35-.57-.25-.56,.22-1.14,.14-1.71,.16-.54,.02-1.1-.07-1.61,.06-.73,.19-1.45,.15-2.18,.17-.42,.01-.87-.06-1.27,.05-.76,.22-1.53,.16-2.29,.18-.39,.01-.79-.06-1.15,.04-.84,.24-1.68,.16-2.52,.19-.35,.01-.72-.05-1.03,.05-.68,.22-1.37,.16-2.06,.18-.46,.01-.95-.07-1.38,.05-.76,.21-1.53,.15-2.29,.18-.42,.02-.87-.05-1.26,.07-.57,.17-1.14,.15-1.72,.16-.58,.02-1.18-.06-1.73,.07-.61,.15-1.22,.15-1.83,.16-.5,.01-1.03-.08-1.5,.04-.88,.23-1.76,.16-2.64,.19-.35,.01-.71-.04-1.03,.07-.53,.17-1.06,.15-1.6,.16-.65,.01-1.33-.08-1.96,.06-.81,.18-1.6,.15-2.41,.18-.35,.01-.72-.06-1.04,.04-.8,.24-1.61,.12-2.41,.2-1.42,.14-2.83,.26-4.25,.24-.19,0-.37,.12-.56,.13-.88,.09-1.77,.19-2.64-.06-1.22-.35-2.43-.74-3.64-1.12-1.72-.54-3.43-1.14-5.17-1.63-1.49-.42-2.92-.97-4.28-1.7-1.77-.95-3.2-2.25-4.1-4.08-.18-.37-.28-.81-.66-1.06,0-.23,0-.46-.12-.67-.59-1.04-1.17-2.08-1.76-3.12-1.33-2.35-2.65-4.69-3.98-7.04-.46-.8-.94-1.59-1.39-2.39-.7-1.24-1.39-2.49-2.08-3.73-.1-.19,.01-.4,.23-.41,1.47-.11,2.91,.24,4.36,.31,1.18,.06,2.36,.25,3.54,.37,.46,.04,.91,.03,1.37,.16,.64,.17,1.4,.1,1.99-.09-.08-.09-.14-.19-.23-.25-1.99-1.39-3.98-2.77-5.97-4.15-.89-.61-1.78-1.22-2.66-1.84-2.74-1.93-5.47-3.86-8.21-5.78-.41-.29-.85-.52-1.28-.78,.06-.27-.13-.42-.29-.59-1.12-1.14-2.44-1.98-3.88-2.66-1.57-.75-3.22-1.25-4.85-1.82-1.09-.38-2.18-.76-3.25-1.19-1.24-.5-2.4-1.15-3.52-1.95,1.07-.2,10.34-.26,17.18-.12,.87,.18,1.66,.59,2.48,.92,1.71,.69,3.41,1.42,5.12,2.12,2.2,.91,4.42,1.79,6.62,2.71,2.56,1.06,5.1,2.16,7.66,3.22,1.99,.82,3.99,1.62,5.98,2.43,1.74,.71,3.48,1.44,5.22,2.16,.85,.35,1.71,.69,2.56,1.05,1.63,.68,3.26,1.38,4.89,2.05,2.09,.87,4.19,1.73,6.29,2.6,.85,.35,1.71,.7,2.56,1.05,.14,.06,.34,.12,.41-.04,.05-.1-.03-.3-.1-.42-.09-.16-.23-.31-.36-.44-1.97-1.84-3.66-3.96-5.59-5.84-.36-.35-.74-.69-1.04-1.08-.76-1.03-1.69-1.89-2.64-2.73,.06-.44-.29-.69-.5-1-2.72-3.93-5.46-7.85-8.19-11.77-2.99-4.3-5.99-8.6-8.98-12.9-.18-.25-.35-.51-.52-.76-.14-.21-.03-.36,.12-.49,.16-.14,.32-.2,.51-.05,.24,.19,.49,.38,.73,.57,6.53,5.23,13.05,10.47,19.58,15.69,.26,.21,.47,.53,.9,.53,.13-.38,.08-.73-.12-1.08-.14-.23-.28-.46-.42-.69-9.59-15.46-19.17-30.91-28.76-46.37-1.24-2-2.48-3.99-3.71-5.99-.14-.22-.35-.42-.33-.72,.04-.04,.08-.07,.11-.11,.29,.09,.59,.16,.88,.27,3.69,1.42,7.38,2.84,11.07,4.26,.18,.07,.33,.19,.49,.28,.03,.17,.1,.29,.3,.26,0,0,.08-.04,.08-.03-.16,.21-.15,.42,0,.63,.26,.33,.54,.65,.81,.97,.61,.74,1.16,1.53,1.86,2.19,1.73,1.64,3.4,3.34,5.14,4.97,4.07,3.82,7.82,7.97,11.98,11.71,1.4,1.26,2.64,2.68,4.1,3.9,1.26,1.06,2.37,2.3,3.63,3.38,1.17,.99,2.22,2.13,3.41,3.1,.68,.56,1.31,1.19,1.98,1.76,1.32,1.11,2.65,2.21,3.97,3.32,1.09,.91,2.17,1.83,3.26,2.74,.79,.66,1.58,1.34,2.4,1.97,.7,.54,1.34,1.15,2,1.73,.78,.68,1.6,1.32,2.39,1.98,.71,.59,1.4,1.2,2.1,1.79,.68,.57,1.38,1.1,2.05,1.68,.79,.68,1.51,1.43,2.34,2.05,.62,.47,1.15,1.02,1.74,1.51,.88,.74,1.77,1.47,2.64,2.22,.67,.57,1.33,1.16,2,1.73,.85,.72,1.7,1.44,2.56,2.14,.56,.45,1.04,1.02,1.77,1.22,.04,.38,.27,.69,.42,1.02,.12,.27,.31,.51,.3,.83-1.32,.23-2.65,.46-3.97,.69-.93,.16-1.86,.32-2.8,.49,.05,.26,.21,.31,.34,.37,.74,.33,1.47,.67,2.22,.96,1.51,.58,3.03,1.13,4.46,1.9,1.69,.91,3.12,2.11,4.22,3.7,.19,.28,.46,.54,.38,.93l.02-.02c-.18-.06-.37-.1-.53-.19-2.54-1.4-5.18-2.57-7.94-3.43-2.59-.8-5.23-1.28-7.95-1.23-.89,.01-1.76,.08-2.65,.19-2.28,.28-4.43,.96-6.5,1.93-.17,.08-.34,.18-.49,.3-.09,.07-.12,.22-.01,.3,.21,.16,.43,.32,.67,.45,1.48,.83,2.96,1.65,4.44,2.47,3.16,1.77,6.33,3.52,9.48,5.31,1,.57,2.08,1,2.95,1.78-.63,.07-1.2-.21-1.82-.24-.84-.04-1.67-.19-2.51-.3-.91-.12-1.82-.26-2.73-.38-.84-.11-1.68-.18-2.51-.29-.91-.12-1.81-.32-2.73-.38-.54-.04-1.05-.24-1.59-.25-1-.03-1.98-.23-2.96-.39-.76-.13-1.52-.2-2.28-.3-.84-.1-1.68-.19-2.51-.31-.8-.11-1.58-.27-2.38-.38-.8-.11-1.6-.18-2.4-.29-1.29-.18-2.58-.37-3.86-.56-.14-.02-.32,.16-.27,.29,.11,.29,.22,.57,.36,.85,.87,1.76,1.74,3.52,2.62,5.28,.78,1.55,1.66,3.02,2.79,4.36,.87,1.03,1.89,1.8,3.02,2.45,1.85,1.05,3.9,1.41,5.98,1.47,1.43,.04,2.85,.08,4.24,.34,1.39,.26,2.76,.65,4.14,.98,2.72,.64,5.45,1.3,8.18,1.92,1.68,.38,3.38,.68,5.07,1.03,1.99,.42,3.97,.85,5.95,1.28,.84,.07,1.68,.14,2.52,.04,.4,.44,.41,.45,.07,.66-1.36,.87-2.72,1.75-4.08,2.61-2.08,1.32-4.16,2.63-6.24,3.94-.13,.08-.24,.18-.16,.39,.45,.01,.9,.05,1.36-.08,.22-.07,.45-.11,.68-.12,1.08-.02,2.14-.07,3.22-.19,1.33-.16,2.69,.02,4.02-.27-.37,.65-.97,1.09-1.47,1.62-2.42,2.64-4.82,5.3-7.42,7.77-1.79,1.7-3.7,3.26-5.74,4.65-1.63,1.11-3.35,2.04-5.13,2.88-.16,.08-.49,.06-.4,.41,1.05,.1,2.08-.11,3.11-.19,1.53-.12,3.07-.2,4.61-.29,.12,0,.23-.02,.35-.03,1.53-.13,3.06-.27,4.6-.39,1.42-.11,2.84-.19,4.26-.28,.11,0,.23-.02,.34-.05,.57-.14,1.14-.14,1.72-.1-.37,.39-.7,.83-1.12,1.15-1.35,1.03-2.51,2.27-3.76,3.39-1.26,1.12-2.59,2.18-3.73,3.44-.03,.03-.05,.06-.08,.08-1.49,1.16-2.81,2.5-4.2,3.77-1.27,1.17-2.64,2.24-3.8,3.53-.05,.06-.11,.11-.17,.15-1.51,1.08-2.64,2.56-4.1,3.71-1.08,.85-1.99,1.91-3.04,2.82-1.45,1.26-2.76,2.67-4.21,3.94-1.1,.96-2.08,2.04-3.19,3-1.46,1.25-2.73,2.71-4.21,3.94-.65,.54-1.21,1.19-1.81,1.78-.47,.46-.93,.91-1.47,1.3-.58,.42-1.08,.96-1.62,1.45-.09,.06-.2,.12-.28,.19-1.61,1.52-3.22,3.05-4.84,4.56-.7,.65-1.42,1.27-2.12,1.92-.24,.22-.54,.28-.84,.31-.19,0-.39,0-.57,.03-.71,.12-1.42,.28-2.14,.39-1.17,.18-2.35,.3-3.52,.52-1.96,.36-3.91,.74-5.85,1.16-2.62,.57-5.22,1.2-7.83,1.8-2.39,.55-4.78,1.08-7.16,1.62-1.27,.29-2.53,.61-3.8,.9-2.46,.56-4.93,1.11-7.39,1.67Z"/>
  <path class="cls-5" d="M86.56,137.45c.37,.26,.47,.69,.66,1.06,.91,1.83,2.33,3.13,4.1,4.08,1.36,.73,2.78,1.29,4.28,1.7,1.74,.48,3.45,1.08,5.17,1.63,1.21,.38,2.42,.77,3.64,1.12,.87,.25,1.75,.14,2.64,.06,.19-.02,.37-.14,.56-.13,1.42,.02,2.84-.1,4.25-.24,.8-.08,1.61,.04,2.41-.2,.32-.1,.69-.03,1.04-.04,.8-.03,1.6,0,2.41-.18,.63-.14,1.3-.05,1.96-.06,.54-.01,1.07,.01,1.6-.16,.32-.1,.69-.05,1.03-.07,.88-.03,1.76,.04,2.64-.19,.47-.12,1-.03,1.5-.04,.61-.01,1.22-.02,1.83-.16,.55-.13,1.15-.05,1.73-.07,.58-.02,1.14,0,1.72-.16,.39-.12,.84-.05,1.26-.07,.77-.03,1.53,.04,2.29-.18,.43-.12,.92-.04,1.38-.05,.69-.02,1.38,.04,2.06-.18,.32-.1,.69-.04,1.03-.05,.84-.03,1.69,.05,2.52-.19,.36-.1,.77-.03,1.15-.04,.77-.02,1.53,.03,2.29-.18,.39-.11,.84-.04,1.27-.05,.73-.02,1.45,.01,2.18-.17,.51-.13,1.07-.04,1.61-.06,.57-.02,1.15,.07,1.71-.16,.25-.1,.45,.02,.57,.25,.64,1.19,1.17,2.4,1.39,3.76,.15,.95,.02,1.82-.26,2.69-.29,.93-.82,1.73-1.48,2.45-.68,.74-1.47,1.35-2.29,1.92-1.61,1.13-3.32,2.09-5.06,3-1.19,.62-2.35,1.31-3.52,1.97-.81,.45-1.62,.89-2.42,1.34-1.62,.89-3.25,1.75-4.85,2.68-1.7,.98-3.36,2.03-5.04,3.02-.56,.33-1.15,.64-1.75,.89-1.74,.74-3.42,1.59-5,2.63-.64,.42-1.24,.9-1.83,1.39-1.8,1.48-3.77,2.64-5.97,3.43-1.52,.55-3.06,1.01-4.65,1.28-.79,.14-1.6,.21-2.38,.36-1.37,.27-2.76,.08-4.12,.37-.81,.17-1.69,.05-2.54,.06-.58,0-1.14-.01-1.72,.16-.36,.11-.76,.05-1.15,.06-.8,.03-1.62-.09-2.4,.2-.1,.04-.23,.03-.34,.03-2.39,.1-4.72,.52-6.99,1.27-.22,.07-.45,.09-.67,.13-1.25-.32-2.52-.23-3.78-.23-.42,0-.87-.07-1.26,.05-.68,.2-1.37,.16-2.06,.18-.27,0-.56-.04-.8,.06-.56,.21-1.14,.16-1.71,.18-.27,0-.56-.04-.8,.05-.6,.22-1.21,.17-1.83,.18-.31,0-.64-.05-.92,.05-.64,.22-1.29,.17-1.94,.19-.23,0-.48-.03-.69,.05-.52,.21-1.06,.16-1.59,.18-.31,0-.64-.04-.92,.05-.57,.2-1.14,.17-1.71,.18-.19,0-.4-.02-.57,.04-.59,.23-1.21,.18-1.82,.19-.27,0-.56-.03-.8,.06-.49,.18-.98,.16-1.48,.17-.27,0-.56-.04-.8,.05-.52,.2-1.06,.16-1.59,.18-.27,0-.55-.01-.8,.07-.45,.16-.91,.15-1.37,.16-.31,0-.63-.03-.92,.07-.45,.15-.9,.16-1.37,.17-.27,0-.55,0-.8,.09-.41,.14-.83,.13-1.25,.14-.31,0-.64-.04-.92,.05-.96,.31-2,.06-2.95,.41-1.5,0-2.97,.25-4.44,.47-.18-.46-.6-.69-.94-1-3.32-3-6.64-5.98-9.97-8.97-6.42-5.77-12.81-11.58-19.11-17.47-3.41-3.18-6.82-6.36-10.23-9.54-.25-.23-.54-.44-.7-.57,.02-.4,.19-.39,.33-.41,3.97-.55,7.94-1.1,11.9-1.65,3.59-.5,7.17-1.03,10.76-1.52,3.7-.51,7.41-.99,11.11-1.49,3.7-.5,7.4-1.02,11.11-1.52,3.17-.43,6.34-.82,9.51-1.24,2.6-.34,5.19-.71,7.79-1.06,.92-.12,1.84-.21,2.75-.31,1.26-.64,2.67-.62,4.01-.91,.07-.02,.16-.02,.23,0,.75,.2,1.53,.15,2.27,.29,1.77,.33,3.5,.84,5.21,1.41,.98,.33,1.98,.6,2.98,.88,.59,.17,1.03,.12,1.47-.27Z"/>
  <path class="cls-1" d="M164.81,118.93c.08-.39-.18-.65-.38-.93-1.1-1.58-2.53-2.78-4.22-3.7-1.43-.77-2.95-1.32-4.46-1.9-.75-.29-1.49-.63-2.22-.96-.13-.06-.29-.11-.34-.37,.94-.16,1.87-.33,2.8-.49,1.32-.23,2.65-.46,3.97-.69,.35,0,.71,.05,1.04-.03,.83-.18,1.68-.22,2.52-.22,.12,0,.24,0,.34-.04,.6-.22,1.22-.17,1.83-.19,.27,0,.55,0,.8-.07,.49-.16,.99-.14,1.49-.16,.27,0,.54,0,.81-.03,.29-.02,.39-.2,.27-.48-.08-.18-.16-.35-.26-.52-1.09-1.86-2.21-3.7-3.28-5.57-.44-.76-1.01-1.45-1.27-2.3,.24-.19,.47-.13,.69-.06,1.74,.54,3.38,1.27,4.91,2.26,1.88,1.22,3.55,2.7,5.24,4.15,1.29,1.1,2.58,2.19,4.02,3.1,.33,.21,.59,.63,1.09,.45,.06-.4-.14-.73-.27-1.09-.76-2.06-1.59-4.09-2.17-6.21-.43-1.55-.77-3.13-.63-4.77,.14-.02,.28-.04,.42-.06,.21,.08,.42,.19,.64,.25,1.36,.4,2.72,.8,4.08,1.2,.66,.19,1.32,.4,1.98,.59,.28,.08,.44-.08,.38-.37-.14-.67-.28-1.35-.44-2.02-.47-1.97-.95-3.94-1.44-5.91-.09-.38-.12-.75-.09-1.14h0c.11,.03,.25,.02,.33,.08,1.8,1.26,3.42,2.71,4.74,4.49,1.51,2.04,2.75,4.25,4.02,6.44,.89,1.52,1.76,3.06,2.84,4.46,.28,.36,.59,.71,.89,1.05,.17,.19,.44,.13,.55-.12,.21-.45,.39-.92,.62-1.36,.68-1.26,1.69-2.18,3.02-2.7,1.36-.53,2.77-.92,4.26-.77,0,1.04,0,2.08,0,3.12,0,2.5,0,5.01,0,7.51-.07,.96-.28,1.9-.19,2.85,.24,.23,.44,.1,.65,.03,2.27-.73,4.54-1.47,6.83-2.17,.57-.17,.89-.47,1.09-1.04,1.12-3.24,2.28-6.47,3.42-9.7,4.26-12.06,8.51-24.13,12.78-36.19,.11-.31,.16-.66,.55-.97,1.68,7.18,3.33,14.25,4.99,21.36,.42,.04,.64-.26,.9-.45,3.61-2.76,7.22-5.53,10.83-8.3,.12-.09,.24-.2,.36-.28,.15-.1,.29-.31,.49-.23,.28,.12,.15,.4,.13,.6-.1,1.23-.21,2.46-.33,3.68-.2,2.03-.41,4.06-.62,6.09-.2,1.95-.41,3.91-.61,5.86-.18,1.8-.35,3.6-.54,5.41-.21,2.03-.42,4.06-.62,6.09-.13,1.27-.25,2.53-.34,3.8-.03,.49-.24,.76-.69,.94-1.83,.71-3.65,1.44-5.48,2.17-.39,.16-.78,.33-1.19,.5,.15,.6,.74,.81,.98,1.28-.22,.32-.6,.34-.92,.43-1.29,.36-2.6,.68-3.9,1.02-2.41,.64-4.82,1.29-7.23,1.94-3.6,.97-7.19,1.95-10.79,2.91-.19,.05-.37,.1-.46,.3,.12,.22,.35,.29,.57,.36,.74,.24,1.43,.6,2.08,.99,.83,.5,1.71,.89,2.54,1.38,1.31,.77,2.71,1.02,4.22,.92,.61-.04,1.14-.18,1.57-.62,.33-.33,.7-.6,1.12-.81,1.48,2.06,2.96,4.13,4.43,6.19,.34,.47,.28,.6-.33,.76-1.49,.39-2.97,.77-4.46,1.15-2.16,.55-4.32,1.1-6.47,1.66-.33,.09-.67,.16-.96,.37-.48,.12-.99,.19-1.45,.36-2.05,.77-4.11,1.5-6.23,2.08-.18,.05-.36,.13-.53,.22-.6,.33-.91,.98-.79,1.65,.04,.26,.13,.52,.16,.79,.03,.33,.18,.58,.39,.81,.45,.49,.93,.92,1.59,1.11,.26,.07,.5,.19,.74,.31,1.55,.77,3.1,1.55,4.65,2.33,.17,.09,.33,.19,.49,.3,.08,.05,.09,.13,.03,.21-.02,.03-.05,.06-.08,.06-.27,.01-.54,.03-.81,.03-2.35,0-4.7,0-7.05,0-.31,0-.62,0-.92,.02-.26,.02-.41,.21-.38,.47,.05,.42,.18,.83,.17,1.25-.01,.67,.15,1.3,.28,1.93,.21,1.03,.8,1.82,1.62,2.45,.61,.47,1.22,.93,1.84,1.39,.12,.09,.28,.1,.43,.15,.3,.49,.87,.69,1.22,1.12-.33,.52-.58,1.07-.96,1.58-.53,.72-1.16,1.34-1.79,1.96-.56,.54-1.05,1.13-1.48,1.76-.43,.63-.84,1.3-.91,2.09,0,.08-.02,.15-.04,.23-.06,.23-.34,.32-.56,.17-.16-.11-.3-.25-.45-.37-.69-.56-1.37-1.11-2.06-1.67-1.37-1.12-2.74-2.24-4.11-3.36-1.31-1.07-2.62-2.15-3.93-3.22-.11-.09-.22-.22-.38-.08-.08,.19-.03,.38,.02,.56,.56,1.92,1.14,3.83,1.7,5.75,.53,1.81,1.06,3.61,1.57,5.43,.29,1.04,.24,1.08-.77,1.33-.32,.08-.52,0-.67-.27-.31-.53-.62-1.06-.91-1.61-1.13-2.15-2.24-4.31-3.36-6.46-.11-.2-.23-.4-.36-.59-.08-.12-.3-.06-.38,.07-.12,.22-.09,.45-.11,.68-.14,1.66,.11,3.31,.3,4.95,.13,1.16,.12,2.3,.16,3.45,.04,1.02-.25,1.98-.6,2.92-.08,.21-.13,.46-.47,.56-.53-.86-.94-1.81-1.4-2.72-.46-.89-.89-1.79-1.34-2.69-.46-.93-.93-1.86-1.39-2.79-.45-.9-.86-1.81-1.35-2.69-.5-.9-.79-1.91-1.36-2.79-.16,.08-.27,.12-.35,.19-1.24,1.09-2.49,2.18-3.72,3.28-1.06,.95-2.1,1.93-3.15,2.88-.14,.13-.32,.21-.46,.34-.62,.57-1.31,1.08-1.76,1.81-.28,.01-.48,.19-.7,.35-1.23,.88-2.47,1.75-3.7,2.63-1.39,.02-2.77,.03-4.16,.05-.58-.04-1.15-.04-1.72,.1-.11,.03-.23,.04-.34,.05-1.42,.09-2.84,.17-4.26,.28-1.53,.12-3.06,.26-4.6,.39-.12,0-.23,.02-.35,.03-1.54,.1-3.07,.17-4.61,.29-1.03,.08-2.06,.28-3.11,.19-.09-.35,.24-.34,.4-.41,1.78-.84,3.5-1.77,5.13-2.88,2.04-1.39,3.95-2.95,5.74-4.65,2.6-2.47,5-5.13,7.42-7.77,.49-.54,1.1-.97,1.47-1.62,.25,0,.43-.14,.6-.3,.47-.46,.9-.95,1.41-1.36,.85-.69,1.33-1.55,1.47-2.62,0-.04,.01-.08,.02-.11,.14-.72,.52-1.22,1.2-1.57,1.36-.7,2.69-1.48,4.03-2.23,.17-.09,.34-.18,.5-.29,.22-.16,.23-.37,.1-.61-.12-.22-.25-.37-.54-.28-.33,.11-.67,.18-1,.27-1.25,.36-2.51,.69-3.75,1.1-.97,.32-2,.51-2.89,1.07-.84,.1-1.68,.03-2.52-.04-.49-1.13-.87-2.3-1.16-3.5-.17-.71-.32-1.43-.51-2.13-.31-1.12-.67-2.21-1.37-3.16-.61-.83-1.35-1.49-2.35-1.78-.62-.18-1.26-.34-1.93-.28-.69,.06-1.39-.07-2.07,.14-.16,.05-.31-.05-.37-.2-.16-.43-.31-.87-.45-1.3-.39-1.21-.78-2.42-1.17-3.62-.07-.21-.22-.3-.42-.33-.87-.78-1.96-1.21-2.95-1.78-3.14-1.8-6.31-3.55-9.48-5.31-1.48-.83-2.96-1.65-4.44-2.47-.23-.13-.46-.28-.67-.45-.1-.08-.08-.23,.01-.3,.15-.12,.32-.22,.49-.3,2.07-.97,4.22-1.65,6.5-1.93,.88-.11,1.76-.17,2.65-.19,2.72-.05,5.37,.43,7.95,1.23,2.77,.86,5.41,2.02,7.94,3.43,.16,.09,.35,.13,.53,.19,.01,.03,.02,.06,.04,.08,0,.01,.04,0,.06,0-.04-.02-.07-.05-.11-.07Zm15.59,2.94c.14,.28,.28,.59,.44,.89,2.11,3.94,4.22,7.87,6.33,11.81,.55,1.02,1.1,2.03,1.64,3.05,.18,.34,.43,.5,.83,.5,2.39,.04,4.78,.03,7.13-.47,2.5-.52,4.75-1.52,6.58-3.37,1.29-1.31,2.23-2.84,2.98-4.51,.87-1.94,1.45-3.97,1.95-6.03,.04-.15,.03-.3,.04-.46,.01-.15-.12-.22-.21-.22-.31,0-.61,.03-.92,.04-.92,.02-1.84,.05-2.76-.15-1.33-.3-2.56-.83-3.71-1.55-1.18-.73-2.27-1.59-3.35-2.46-1.2-.97-2.39-1.94-3.68-2.79-.94-.61-1.92-1.14-2.98-1.51-1.14-.39-2.31-.6-3.51-.56-.71,.02-.85,.12-1.07,.82-.12,.36-.17,.75-.25,1.12-.19,.98-.18,1.99-.43,2.97-.37,1.45-1.13,2.47-3.18,2.69-.34,.04-.69,0-1.04,.02-.25,.02-.53-.11-.83,.15Z"/>
  <path class="cls-5" d="M168.3,165.95c1.39-.02,2.77-.03,4.16-.05-.71,1.24-1.59,2.35-2.44,3.49-.95,1.27-2.1,2.36-3.23,3.46-1.16,1.13-2.18,2.38-3.16,3.66-1.02,1.32-1.75,2.78-2.11,4.44-.21,.95-.22,1.9-.34,2.85-.16,1.22-.32,2.44-.57,3.63-.67,3.2-1.7,6.31-2.81,9.38-1.02,2.82-2.15,5.6-3.25,8.39-.83,2.11-1.64,4.23-2.23,6.43-.06,.22-.2,.31-.4,.35-.28-.09-.4-.33-.55-.56-1.14-1.69-2.29-3.36-3.44-5.05-1.32-1.94-2.64-3.87-3.95-5.81-.92-1.37-1.84-2.74-2.75-4.12-.15-.23-.29-.46-.61-.57-.47,.36-.88,.8-1.25,1.29-.87,1.17-1.76,2.32-2.66,3.47-1.02,1.3-2.06,2.57-3.08,3.87-.87,1.12-1.7,2.27-2.57,3.39-1.57,1.99-3.17,3.95-4.73,5.94-1.25,1.6-2.48,3.22-3.71,4.83-.39,.5-.4,.54,0,.96,2.33,2.4,4.8,4.67,7,7.21,.7,.81,1.57,1.47,2.36,2.2,1.81,1.66,3.48,3.48,5.35,5.09,1.13,.98,2.21,2.03,3.3,3.05,.06,.05,.12,.1,.18,.15,.85,.71,1.71,1.42,2.56,2.14,.62,.52,1.21,1.06,1.84,1.57,.96,.77,1.94,1.49,2.9,2.26,1.35,1.08,2.66,2.2,4.01,3.27,1.44,1.14,2.91,2.26,4.36,3.38-.22,.34-.6,.46-.92,.66-9.82,6.12-19.98,11.64-30.14,17.15-11.48,6.23-23.02,12.35-34.63,18.33-2.57,1.32-5.14,2.65-7.56,4.24-.43,.29-.88,.47-1.4,.41-.86-.09-1.74,.19-2.59-.16,.2-.84,.73-1.51,1.14-2.24,3.07-5.48,6.15-10.96,9.23-16.43,.21-.37,.46-.72,.52-1.15,1.18-.97,1.99-2.25,2.71-3.55,1.21-2.18,2.35-4.42,3.02-6.84,.29-1.05,.65-2.05,1.76-2.54,.3-.13,.3-.41,.29-.69,.45,.1,.7-.12,.91-.5,1.31-2.31,2.64-4.62,3.97-6.92,5.82-10.13,11.64-20.25,17.45-30.38,.06-.1,.12-.2,.17-.3,.22-.49,.55-.83,1.15-.78,.26,.02,.41-.13,.5-.38,.68-2.09,1.37-4.17,2.04-6.26,.03-.1,0-.22-.01-.34,0,0-.03,0-.03,0,.17,.05,.17-.1,.23-.19,1.08-2.16,2.16-4.32,3.24-6.48,.14-.27,.28-.55,.4-.83,.07-.16,0-.29-.15-.39,.54-.49,1.03-1.03,1.62-1.45,.54-.39,1-.84,1.47-1.3,.61-.59,1.17-1.24,1.81-1.78,1.48-1.24,2.75-2.69,4.21-3.94,1.11-.96,2.1-2.04,3.19-3,1.45-1.27,2.76-2.68,4.21-3.94,1.05-.91,1.95-1.97,3.04-2.82,1.46-1.14,2.59-2.63,4.1-3.71,.06-.04,.12-.1,.17-.15,1.16-1.29,2.53-2.36,3.8-3.53,1.38-1.27,2.71-2.62,4.2-3.77,.03-.02,.06-.05,.08-.08,1.14-1.26,2.47-2.32,3.73-3.44,1.26-1.12,2.41-2.36,3.76-3.39,.42-.32,.75-.77,1.12-1.15Z"/>
  <path class="cls-5" d="M199.31,212.44c-.22,3.43-.27,6.86-.22,10.29,.05,3.62,.41,7.23,.59,10.85,.18,3.58,.25,7.17-.32,10.73-.13,.84-.47,1.53-1.02,2.16-.61,.7-1.34,1.28-2.11,1.79-.87,.58-1.75,1.13-2.64,1.66-1.7,1-3.33,2.09-4.92,3.25-12.6,9.23-25.34,18.25-38.13,27.21-2.75,1.92-5.49,3.86-8.24,5.78-.28,.19-.53,.45-.88,.53-.15-.3,.07-.51,.17-.74,2.25-5.08,4.78-10.02,7.5-14.85,3.29-5.84,6.65-11.65,9.98-17.47,2.32-4.05,4.58-8.13,6.69-12.29,3.36-6.65,6.32-13.46,8.38-20.64,1.33-4.64,2.3-9.35,2.76-14.16,.06-.65,.11-1.3,.17-1.96,.17-.21,.34-.42,.5-.63,1.35-1.82,2.74-3.6,4.18-5.36,.61-.74,1.17-1.51,1.35-2.51,.53-3.01,1.43-5.9,2.87-8.6,1.12-2.09,2.47-4,4.44-5.37,.76-.52,1.53-1.06,2.36-1.45,1.22-.57,2.49-1.03,3.8-1.34,.45-.11,.88-.3,1.36-.21-.35,1.1-.49,2.22-.48,3.39,.03,4.15,.01,8.3,.01,12.45,0,.35-.05,.72,.05,1.03,.2,.6,.15,1.21,.17,1.82,.06,1.61-.16,3.22,.22,4.81,.05,.22,0,.46,.01,.69,0,.23-.04,.48,.04,.69,.22,.63,.19,1.28,.2,1.94,0,.27,0,.54,.24,.73-.01,.29-.19,.49-.38,.68-.48,.49-.97,.98-1.45,1.47-.21,.22-.43,.43-.55,.72-.06,.15-.09,.29,.03,.42,.13,.14,.25,.29,.4,.4,.95,.7,1.9,1.38,2.86,2.07Z"/>
  <path class="cls-5" d="M159.24,108.04c-.73-.21-1.21-.77-1.77-1.22-.86-.7-1.71-1.42-2.56-2.14-.67-.57-1.33-1.16-2-1.73-.88-.74-1.77-1.47-2.64-2.22-.59-.5-1.12-1.05-1.74-1.51-.83-.62-1.55-1.37-2.34-2.05-.67-.57-1.37-1.11-2.05-1.68-.71-.59-1.4-1.2-2.1-1.79-.79-.66-1.61-1.3-2.39-1.98-.67-.58-1.3-1.19-2-1.73-.82-.63-1.61-1.3-2.4-1.97-1.09-.91-2.17-1.83-3.26-2.74-1.32-1.11-2.66-2.2-3.97-3.32-.67-.57-1.29-1.2-1.98-1.76-1.18-.98-2.24-2.11-3.41-3.1-1.26-1.07-2.37-2.32-3.63-3.38-1.45-1.22-2.7-2.64-4.1-3.9-4.16-3.74-7.91-7.89-11.98-11.71-1.74-1.63-3.41-3.34-5.14-4.97-.7-.66-1.26-1.45-1.86-2.19-.27-.33-.55-.64-.81-.97-.16-.21-.17-.42,0-.63,1.57,.75,3.04,1.66,4.54,2.53,12.33,7.15,24.63,14.35,36.88,21.63,.43,.25,.86,.48,1.34,.75,4.02-6.82,8-13.59,12.04-20.45,2.99,3.57,5.9,7.05,8.82,10.53,2.91,3.48,5.82,6.97,8.85,10.56,.48-1.41,.72-2.69,1.04-3.95,.33-1.31,.64-2.62,.98-3.92,.33-1.25,.56-2.53,1.01-3.84,.46,.32,.7,.71,.98,1.06,3.22,3.94,6.44,7.88,9.66,11.81,.39,.48,.79,.95,1.19,1.42-.99,2.06-1.99,4.12-2.96,6.19-.29,.62-.5,1.27-.75,1.91-.21,.14-.29,.36-.37,.57-.31,.82-.62,1.65-.91,2.48-.61,1.69-.82,3.41-.36,5.18,.06,.25,.02,.53,.03,.8-.52,.36-1,.24-1.51-.06-.95-.57-1.93-1.12-2.89-1.67-1.33-.77-2.65-1.55-3.98-2.31-1.83-1.05-3.67-2.08-5.51-3.12-.29-.44-.25-.97-.36-1.45-.46-1.94-.86-3.9-1.29-5.85-.23-1.05-.47-2.1-.71-3.15-.03-.15-.09-.3-.15-.44-.05-.12-.02-.33-.26-.27-.06,.06-.13,.11-.15,.17-.59,1.51-1.29,2.96-2.01,4.42-.92,1.86-1.9,3.7-2.72,5.62-.92,2.13-1.72,4.28-1.88,6.63-.43,1.31-.11,2.62,.13,3.88,.52,2.76,1.9,5.11,3.78,7.16,.53,.57,.96,1.17,1.28,1.88,.29,.66,.49,1.29,.39,2Z"/>
  <path class="cls-6" d="M197.93,179.12c-.48-.08-.91,.11-1.36,.21-1.31,.31-2.58,.77-3.8,1.34-.83,.39-1.6,.92-2.36,1.45-1.98,1.37-3.33,3.28-4.44,5.37-1.44,2.71-2.34,5.59-2.87,8.6-.18,1-.74,1.77-1.35,2.51-1.44,1.75-2.83,3.54-4.18,5.36-.16,.22-.33,.42-.5,.63-.36,.07-.6,.33-.87,.55-3.07,2.45-6.13,4.9-9.2,7.36-.39,.31-.81,.59-.98,1.09-.55,.02-.9,.42-1.29,.71-2.56,1.96-5.09,3.95-7.65,5.92-2.52,1.94-5.06,3.87-7.59,5.8-.76,.58-1.51,1.18-2.28,1.76-.08,.06-.23,.09-.31,.05-.12-.05-.08-.2-.05-.31,.03-.11,.07-.22,.11-.33,.47-1.34,.94-2.68,1.4-4.02,1.05-3.05,2.09-6.1,3.14-9.15,.23-.66,.4-1.32,.37-2.03,.2-.04,.34-.14,.4-.35,.59-2.19,1.4-4.31,2.23-6.43,1.1-2.79,2.23-5.57,3.25-8.39,1.12-3.07,2.14-6.18,2.81-9.38,.25-1.19,.41-2.42,.57-3.63,.13-.95,.14-1.9,.34-2.85,.37-1.66,1.1-3.12,2.11-4.44,.98-1.28,2-2.53,3.16-3.66,1.13-1.1,2.27-2.2,3.23-3.46,.85-1.13,1.73-2.25,2.44-3.49,1.23-.88,2.47-1.75,3.7-2.63,.22-.15,.41-.33,.7-.35,.01,.44,.36,.67,.64,.92,.28,.26,.62,.46,.9,.72,1.46,1.37,2.86,2.8,4.34,4.15,2.4,2.17,4.68,4.47,7.01,6.71,.22,.21,.43,.45,.66,.65,.35,.3,.72,.58,1.09,.84,.24,.17,.53,.1,.72-.14,.1-.12,.16-.26,.25-.39,1.6-2.36,3.2-4.71,4.79-7.07,.39-.57,.77-1.15,1.18-1.71,.21-.29,.47-.24,.6,.11,.41,1.13,1.02,2.16,1.54,3.23,.12,.24,.27,.47,.44,.67,.4,.44,.9,.34,1.04-.23,.35-1.39,1.11-2.51,2.11-3.51,1.14-1.15,2.47-2.09,3.56-3.3,.05-.06,.11-.1,.18-.15,.16-.12,.35-.17,.54-.09,.18,.07,.35,.16,.52,.26,3.16,1.89,6.51,3.32,10.1,4.16-.28,.34-.69,.47-1.07,.66-2.66,1.3-5.32,2.59-7.99,3.88-1.28,.62-2.56,1.24-3.85,1.84-2.76,1.28-5.47,2.64-8.2,3.97Z"/>
  <path class="cls-6" d="M199.31,212.44c-.95-.69-1.91-1.38-2.86-2.07-.15-.11-.27-.26-.4-.4-.12-.13-.09-.27-.03-.42,.12-.29,.34-.5,.55-.72,.48-.49,.96-.98,1.45-1.47,.19-.19,.36-.39,.38-.68,.34-.2,.58-.5,.82-.8,.53-.66,1.05-1.32,1.58-1.98,.8-.99,1.61-1.96,2.4-2.95,.79-.99,1.57-1.99,2.37-2.97,.82-1.02,1.66-2.01,2.48-3.03,1.11-1.37,2.19-2.77,3.3-4.14,1.11-1.37,2.24-2.73,3.35-4.1,1.23-1.52,2.46-3.05,3.69-4.57,.8-.98,1.61-1.96,2.4-2.95,.79-.99,1.58-1.98,2.37-2.97,.86-1.08,1.73-2.15,2.6-3.23,1.11-1.37,2.23-2.74,3.35-4.11,.12-.15,.27-.27,.39-.42,.32-.41,.74-.52,1.24-.42,.03,.38,.07,.77,.07,1.15,0,20.15,0,40.31,0,60.46v.95c-.47,.05-.75-.24-1.07-.43-5.06-2.95-10.11-5.91-15.16-8.86-4.75-2.78-9.51-5.56-14.26-8.34-.33-.19-.68-.36-1.02-.54Z"/>
  <path class="cls-4" d="M151.9,211.99c.03,.7-.14,1.36-.37,2.03-1.06,3.05-2.1,6.1-3.14,9.15-.46,1.34-.93,2.68-1.4,4.02-.04,.11-.08,.22-.11,.33-.03,.11-.07,.26,.05,.31,.08,.04,.23,0,.31-.05,.76-.58,1.51-1.18,2.28-1.76,2.53-1.94,5.07-3.86,7.59-5.8,2.55-1.97,5.09-3.96,7.65-5.92,.38-.29,.74-.69,1.29-.71-.2,1.34-.62,2.62-.95,3.93-1.62,6.38-3.25,12.76-4.88,19.14-.92,3.58-1.83,7.16-2.76,10.74-.23,.88-.46,1.77-.98,2.55-1.46-1.13-2.92-2.24-4.36-3.38-1.35-1.07-2.67-2.19-4.01-3.27-.96-.77-1.94-1.5-2.9-2.26-.63-.5-1.23-1.05-1.84-1.57-.85-.72-1.71-1.42-2.56-2.14-.06-.05-.12-.1-.18-.15-1.1-1.02-2.17-2.07-3.3-3.05-1.87-1.61-3.54-3.43-5.35-5.09-.79-.73-1.66-1.38-2.36-2.2-2.19-2.54-4.66-4.81-7-7.21-.4-.42-.39-.45,0-.96,1.24-1.61,2.46-3.24,3.71-4.83,1.56-1.99,3.16-3.95,4.73-5.94,.88-1.11,1.7-2.27,2.57-3.39,1.01-1.3,2.06-2.57,3.08-3.87,.9-1.15,1.79-2.3,2.66-3.47,.37-.5,.78-.93,1.25-1.29,.32,.12,.46,.35,.61,.57,.91,1.38,1.83,2.75,2.75,4.12,1.31,1.94,2.63,3.88,3.95,5.81,1.15,1.68,2.3,3.36,3.44,5.05,.15,.23,.28,.46,.55,.56Z"/>
  <path class="cls-5" d="M81.43,218.48c2.46-.56,4.93-1.11,7.39-1.67,1.27-.29,2.53-.61,3.8-.9,2.39-.55,4.78-1.08,7.16-1.62,2.61-.6,5.22-1.22,7.83-1.8,1.94-.42,3.89-.81,5.85-1.16,1.16-.21,2.35-.33,3.52-.52,.72-.11,1.43-.27,2.14-.39,.19-.03,.38-.02,.57-.03-.03,.34-.23,.57-.49,.75-1.14,.79-2.19,1.68-3.26,2.55-1.42,1.17-2.89,2.27-4.31,3.44-1.18,.98-2.34,1.99-3.48,3.01-1.25,1.13-2.5,2.28-3.7,3.47-1.9,1.86-3.78,3.74-5.64,5.64-.94,.96-1.83,1.97-2.73,2.96-.05,.06-.1,.12-.15,.18-.74,1.08-1.47,2.15-2.21,3.23-.39,.57-.76,1.16-1.17,1.71-.98,1.33-1.89,2.7-2.75,4.11-.32,.24-.52,.58-.67,.93-.21,.52-.59,.66-1.1,.6-.19-.02-.39,0-.58,0-15.26,0-30.52,0-45.79,0-.38,0-.76,0-1.11,0-.08-.21,.06-.25,.15-.29,5.63-2.59,11.16-5.38,16.89-7.75,2.24-.93,4.53-1.72,6.77-2.64,3.14-1.29,6.16-2.82,8.93-4.8,3.21-2.29,5.86-5.1,7.86-8.51,.1-.17,.18-.34,.26-.51Z"/>
  <path class="cls-4" d="M46.1,182.81c1.47-.22,2.95-.46,4.44-.47,.95-.35,1.99-.1,2.95-.41,.28-.09,.61-.04,.92-.05,.42,0,.84,0,1.25-.14,.25-.09,.53-.08,.8-.09,.46-.01,.91-.02,1.37-.17,.28-.09,.61-.06,.92-.07,.46-.01,.92,0,1.37-.16,.24-.09,.53-.07,.8-.07,.54-.01,1.07,.02,1.59-.18,.24-.09,.53-.05,.8-.05,.5,0,.99,0,1.48-.17,.24-.09,.53-.05,.8-.06,.61-.01,1.23,.04,1.82-.19,.17-.07,.38-.04,.57-.04,.57-.01,1.15,.02,1.71-.18,.28-.1,.61-.05,.92-.05,.54-.01,1.07,.03,1.59-.18,.2-.08,.46-.05,.69-.05,.65-.01,1.3,.03,1.94-.19,.28-.09,.61-.04,.92-.05,.61-.01,1.23,.04,1.83-.18,.24-.09,.53-.04,.8-.05,.57-.02,1.15,.04,1.71-.18,.24-.09,.53-.05,.8-.06,.69-.02,1.37,.02,2.06-.18,.39-.12,.84-.05,1.26-.05,1.26,0,2.53-.09,3.78,.23-.28,.74-.89,1.26-1.36,1.86-1.91,2.46-3.89,4.86-5.83,7.3-1.91,2.41-3.79,4.84-5.71,7.25-1.39,1.75-2.82,3.46-4.21,5.2-1.29,1.62-2.55,3.28-3.84,4.9-1.19,1.51-2.41,3-3.62,4.49-.39,.03-.76-.03-1.13-.19-.42-.18-.85-.34-1.29-.5-3.22-1.15-6.44-2.3-9.65-3.46-1.95-.7-3.9-1.39-5.81-2.22-1.16-.51-2.35-.98-3.6-1.2-.83-.15-1.65-.34-2.47-.55-1.12-.29-2.19-.72-3.03-1.58-.13-.13-.32-.2-.48-.3,.15-.31,.28-.63,.45-.93,3.16-5.44,6.32-10.89,9.48-16.33,.06-.1,.13-.19,.19-.29Z"/>
  <path class="cls-4" d="M86.56,137.45c-.43,.39-.87,.44-1.47,.27-1-.28-1.99-.55-2.98-.88-1.71-.58-3.43-1.09-5.21-1.41-.75-.14-1.53-.1-2.27-.29-.07-.02-.16-.02-.23,0-1.34,.29-2.75,.27-4.01,.91,.07-.38-.24-.54-.45-.75-1.13-1.1-2.27-2.2-3.41-3.29-2.86-2.75-5.73-5.5-8.59-8.26-3.34-3.21-6.67-6.41-10.01-9.62-2.92-2.8-5.84-5.61-8.76-8.41-.08-.07-.12-.19-.21-.33,.77-.36,1.55-.41,2.35-.41,2.82,.02,5.63,.03,8.45,.04,3.28,.01,6.56,.03,9.84,.03,.8,0,1.61,.19,2.41-.05,.19-.06,.42-.02,.54,.12,.3,.36,.65,.5,1.11,.45,.35-.04,.57,.22,.75,.46,.28,.36,.58,.56,1.08,.44,.62-.15,1.22,.06,1.79,.33,.45,.21,.89,.46,1.34,.68,.55,.27,1.12,.52,1.75,.55,.43,.26,.87,.5,1.28,.78,2.74,1.92,5.47,3.86,8.21,5.78,.88,.62,1.77,1.22,2.66,1.84,1.99,1.38,3.98,2.76,5.97,4.15,.09,.06,.15,.16,.23,.25-.59,.19-1.35,.26-1.99,.09-.46-.12-.91-.11-1.37-.16-1.18-.11-2.36-.31-3.54-.37-1.46-.08-2.9-.42-4.36-.31-.22,.02-.33,.22-.23,.41,.69,1.25,1.38,2.49,2.08,3.73,.45,.8,.94,1.59,1.39,2.39,1.33,2.34,2.65,4.69,3.98,7.04,.59,1.04,1.17,2.08,1.76,3.12,.12,.21,.13,.44,.12,.67Z"/>
  <path class="cls-4" d="M97.92,257.14c0,.28,.01,.56-.29,.69-1.11,.49-1.47,1.48-1.76,2.54-.68,2.43-1.81,4.66-3.02,6.84-.72,1.3-1.53,2.58-2.71,3.55-.11-1.65-.22-3.3-.34-4.95-.11-1.49,.03-1.4-1.3-.82-10.57,4.64-21.15,9.28-31.72,13.92-.34,.15-.7,.29-1.13,.46-.04-.4,.15-.66,.26-.92,2.77-6.48,5.55-12.96,8.32-19.44,1.77-4.14,3.54-8.28,5.32-12.43,.11-.25,.23-.49,.33-.74,.1-.27,.27-.36,.54-.25,.25,.1,.49,.22,.74,.33,6.22,2.69,12.44,5.38,18.65,8.07,.25,.11,.5,.21,.74,.31,.3,.13,.41-.1,.53-.31,.05,.05,.11,.09,.14,.15,.56,1.22,.24,.88,1.44,1.28,1.53,.51,3.09,.96,4.63,1.44,.22,.07,.43,.17,.64,.25Z"/>
  <path class="cls-4" d="M230.74,168.04c-.49-.1-.91,0-1.24,.42-.12,.15-.27,.27-.39,.42-1.12,1.37-2.23,2.74-3.35,4.11-.87,1.07-1.74,2.15-2.6,3.23-.79,.99-1.57,1.98-2.37,2.97-.8,.99-1.6,1.96-2.4,2.95-1.23,1.52-2.45,3.05-3.69,4.57-1.11,1.37-2.24,2.73-3.35,4.1-1.11,1.37-2.2,2.76-3.3,4.14-.82,1.02-1.66,2.02-2.48,3.03-.8,.98-1.57,1.98-2.37,2.97-.79,.99-1.6,1.96-2.4,2.95-.53,.66-1.05,1.32-1.58,1.98-.24,.3-.48,.6-.82,.8-.25-.19-.24-.46-.24-.73,0-.65,.03-1.3-.2-1.94-.07-.21-.03-.46-.04-.69,0-.23,.04-.47-.01-.69-.39-1.59-.16-3.21-.22-4.81-.02-.61,.03-1.22-.17-1.82-.11-.31-.05-.68-.05-1.03,0-4.15,.02-8.3-.01-12.45,0-1.17,.13-2.29,.48-3.39,2.73-1.33,5.45-2.69,8.2-3.97,1.29-.6,2.57-1.22,3.85-1.84,2.67-1.29,5.33-2.58,7.99-3.88,.38-.18,.79-.32,1.07-.66,1.18-.21,2.3-.61,3.4-1.05,.4-.16,.72-.46,.98-.79,.34-.44,.5-.93,.3-1.51-.17-.47-.33-.94-.63-1.35-.53-.76-1.04-1.52-1.56-2.29-1.43-2.11-2.56-4.38-3.76-6.61-.18-.34-.41-.66-.45-1.05,.38,.08,.75,.16,1.13,.23,1.35,.27,2.7,.55,4.06,.82,2.48,.5,4.96,.99,7.44,1.48,1.5,.3,3,.62,4.51,.91,.25,.05,.43,.14,.56,.34-.47,.5-.97,.99-1.42,1.51-1.99,2.31-2.99,4.98-2.87,8.05,0,.19,0,.38,0,.57Z"/>
  <path class="cls-2" d="M177.09,94.61c0-.27,.03-.55-.03-.8-.45-1.77-.24-3.49,.36-5.18,.3-.83,.6-1.65,.91-2.48,.08-.21,.16-.44,.37-.57,.15,.04,.31,.06,.44,.12,.51,.23,.87,.1,1.16-.39,.21-.36,.5-.68,.76-1.01,1.45-1.88,2.9-3.75,4.35-5.63,1.21-1.58,2.43-3.16,3.63-4.74,.15-.2,.29-.35,.55-.36,.26,.41,.24,.89,.33,1.34,.52,2.44,1.02,4.89,1.52,7.33,.39,1.88,.77,3.76,1.15,5.64,.03,.13,0,.33,.3,.28,.26-.64,.53-1.31,.81-1.98,1.23-2.95,2.46-5.89,3.69-8.84,.89-2.13,1.76-4.27,2.64-6.4,.2-.5,.44-.99,.46-1.54,.35-.16,.44-.52,.6-.81,.7-1.23,1.38-2.47,2.06-3.7,.11-.2,.23-.38,.36-.6,.34,.87,.53,2.32,.69,5.27-.01,.54-.02,1.08-.03,1.62-.09,3.65,.14,7.3,.2,10.95,0,.08,0,.15,0,.23-.04,1.06,.06,2.11,.25,3.17,.7,.19,1.41,.02,2.05,.29-.54,0-1.07,0-1.61,.01-.27,0-.42,.15-.44,.42-.01,.19-.02,.38-.01,.58,0,1.04,0,2.07,.02,3.11,.07,2.72,.15,5.44,.23,8.17-.02,.54-.02,1.07,.15,1.6,.14,.42,.1,.82-.36,1.1-.53,.33-.71,.88-.74,1.49-1.5-.16-2.9,.23-4.26,.77-1.33,.52-2.35,1.44-3.02,2.7-.24,.44-.41,.91-.62,1.36-.11,.25-.38,.31-.55,.12-.31-.34-.61-.69-.89-1.05-1.08-1.4-1.95-2.94-2.84-4.46-1.27-2.19-2.51-4.4-4.02-6.44-1.32-1.78-2.94-3.23-4.74-4.49-.09-.06-.22-.05-.33-.08-.04-.11-.07-.13-.09-.05,0,0,.06,.03,.09,.04-.03,.38,0,.76,.09,1.14,.49,1.97,.96,3.94,1.44,5.91,.16,.67,.3,1.34,.44,2.02,.06,.28-.1,.45-.38,.37-.66-.19-1.32-.4-1.98-.59-1.36-.4-2.72-.79-4.08-1.2-.22-.07-.43-.17-.64-.25,0-.15,.03-.31,0-.46-.19-.86-.24-1.74-.25-2.62,0-.13-.13-.26-.2-.39Z"/>
  <path class="cls-5" d="M35.98,200.36c.16,.1,.36,.17,.48,.3,.84,.86,1.91,1.29,3.03,1.58,.81,.21,1.63,.4,2.47,.55,1.25,.22,2.44,.69,3.6,1.2,1.9,.83,3.86,1.52,5.81,2.22,3.21,1.16,6.43,2.3,9.65,3.46,.43,.16,.87,.31,1.29,.5,.36,.16,.74,.21,1.13,.19-.17,.21-.31,.43-.5,.61-.82,.76-1.45,1.66-2.08,2.57-.8,1.16-1.67,2.26-2.73,3.21-.5,.45-1.07,.73-1.64,1.03-.56-.06-1.06,.19-1.57,.33-10.97,2.92-21.94,5.85-32.92,8.77-.44,.12-.88,.21-1.33,.31-.03-.38,.16-.58,.29-.81,4.89-8.52,9.79-17.04,14.69-25.56,.09-.16,.22-.31,.33-.47Z"/>
  <path class="cls-5" d="M111.84,109.44c.96,.84,1.88,1.7,2.64,2.73,.29,.4,.68,.73,1.04,1.08,1.93,1.88,3.62,4,5.59,5.84,.14,.13,.27,.28,.36,.44,.07,.12,.15,.32,.1,.42-.07,.15-.27,.1-.41,.04-.86-.35-1.71-.7-2.56-1.05-2.1-.86-4.19-1.73-6.29-2.6-1.63-.68-3.26-1.37-4.89-2.05-.85-.36-1.71-.7-2.56-1.05-1.74-.72-3.48-1.44-5.22-2.16-1.99-.81-3.99-1.61-5.98-2.43-2.56-1.06-5.1-2.15-7.66-3.22-2.2-.91-4.41-1.8-6.62-2.71-1.71-.7-3.4-1.43-5.12-2.12-.82-.33-1.61-.74-2.48-.92-.05-.39-.4-.44-.66-.56-2.8-1.38-5.6-2.74-8.4-4.11-3.74-1.83-7.47-3.66-11.21-5.48-.18-.09-.34-.17-.4-.36,2.49,.25,4.98,.22,7.48-.01,2.65-.25,5.29-.55,7.94-.72,2.05-.13,4.08,.1,6.07,.65,2.31,.65,4.33,1.83,6.04,3.49,.98,.95,2.05,1.76,3.25,2.38,1.75,.91,3.35,2.04,4.87,3.29,3.45,2.84,6.96,5.62,10.42,8.45,.6,.49,1.23,.74,1.97,.84,2.97,.43,5.95,.88,8.92,1.32,1.26,.19,2.52,.37,3.77,.55Z"/>
  <path class="cls-4" d="M48.4,263.07c-12.08,3.97-24,7.88-35.91,11.8-.11,.03-.22,.08-.34-.03-.02-.26,.17-.46,.29-.68,4.56-8.31,9.13-16.61,13.69-24.92,.47-.85,.45-.8,1.17-.33,6.69,4.48,13.39,8.96,20.08,13.44,.29,.19,.56,.39,1.04,.72Z"/>
  <path class="cls-2" d="M212.49,151.11c-.14-.05-.31-.07-.43-.15-.62-.45-1.24-.91-1.84-1.39-.82-.63-1.41-1.41-1.62-2.45-.13-.64-.29-1.27-.28-1.93,0-.41-.12-.83-.17-1.25-.03-.27,.12-.45,.38-.47,.31-.02,.62-.02,.92-.02,2.35,0,4.7,0,7.05,0,.27,0,.54-.02,.81-.03,.03,0,.06-.03,.08-.06,.05-.08,.05-.15-.03-.21-.16-.1-.32-.21-.49-.3-1.55-.78-3.1-1.55-4.65-2.33-.24-.12-.49-.24-.74-.31-.66-.19-1.14-.62-1.59-1.11-.21-.23-.36-.49-.39-.81-.02-.27-.11-.52-.16-.79-.12-.68,.19-1.33,.79-1.65,.17-.09,.35-.17,.53-.22,2.11-.58,4.18-1.31,6.23-2.08,.46-.17,.97-.24,1.45-.36,.69,.49,1.38,.97,2.07,1.47,4.47,3.21,9.1,6.18,13.66,9.26,2.14,1.44,4.28,2.87,6.42,4.3,.19,.13,.4,.24,.57,.39,.48,.4,.79,.92,1.06,1.48-.32,.48-.86,.59-1.35,.79-.38-.02-.78,0-1.15-.06-2.21-.43-4.43-.85-6.66-1.16-1.67-.23-3.34-.46-5.03-.43-1.12,.02-2.23,.03-3.35,0-1.05-.03-2.07,.13-3.07,.38-1.83,.46-3.71,.56-5.57,.74-.91,.09-1.82,.2-2.74,.26-.35,.02-.57,.2-.72,.49Z"/>
  <path class="cls-5" d="M200.5,69.38c-.03,.55-.26,1.04-.46,1.54-.88,2.14-1.75,4.27-2.64,6.4-1.23,2.95-2.46,5.9-3.69,8.84-.28,.67-.55,1.34-.81,1.98-.31,.05-.28-.15-.3-.28-.39-1.88-.77-3.76-1.15-5.64-.5-2.44-1-4.89-1.52-7.33-.1-.45-.07-.93-.33-1.34,.04-1.22-.11-2.42-.5-3.59,1.57-5.47,3.15-10.95,4.72-16.42,.34-.03,.35,.24,.43,.43,1.23,3.2,2.46,6.4,3.7,9.59,.77,1.97,1.45,3.98,2.56,5.8Z"/>
  <path class="cls-4" d="M37.73,80.49c-1.7,6.18-3.34,12.15-4.98,18.12-.04,.14-.13,.27-.19,.41-1.16-.54-17.44-10.14-18.1-10.68,0-.04-.03-.08-.02-.11,.02-.03,.06-.04,.1-.06,1.64-.55,3.28-1.11,4.92-1.65,6.02-1.99,12.04-3.98,18.27-6.04Z"/>
  <path class="cls-6" d="M212.49,151.11c.15-.29,.37-.47,.72-.49,.92-.06,1.83-.17,2.74-.26,1.86-.18,3.73-.28,5.57-.74,1-.25,2.02-.41,3.07-.38,1.11,.03,2.23,.02,3.35,0,1.69-.03,3.36,.19,5.03,.43,2.24,.31,4.45,.73,6.66,1.16,.37,.07,.77,.04,1.15,.06,.04,.45,.34,.77,.58,1.11,.64,.92,1.41,1.73,2.29,2.43,.93,.74,1.89,1.46,2.86,2.16,.34,.25,.55,.5,.51,.94-.06,.8,.08,1.61-.09,2.41-.82,.04-1.55-.22-2.3-.37-2.75-.55-5.5-1.14-8.25-1.7-.44-.09-.9-.26-1.34,.04-.13-.21-.31-.3-.56-.35-1.51-.29-3.01-.61-4.51-.91-2.48-.5-4.96-.99-7.44-1.48-1.35-.27-2.71-.55-4.06-.82-.38-.08-.75-.15-1.13-.23-.23-.21-.47-.39-.67-.62-.79-.88-1.74-1.36-2.95-1.26-.36-.43-.92-.63-1.22-1.12Z"/>
  <path class="cls-4" d="M89.81,241.46c.86-1.41,1.77-2.78,2.75-4.11,.41-.56,.78-1.14,1.17-1.71,.74-1.08,1.47-2.16,2.21-3.23,.04-.06,.09-.12,.15-.18,.91-.99,1.79-2,2.73-2.96,1.86-1.9,3.74-3.78,5.64-5.64,1.21-1.18,2.45-2.33,3.7-3.47,1.14-1.03,2.29-2.04,3.48-3.01,1.42-1.17,2.89-2.28,4.31-3.44,1.07-.88,2.12-1.77,3.26-2.55,.26-.18,.46-.41,.49-.75,.31-.03,.6-.08,.84-.31,.7-.65,1.43-1.27,2.12-1.92,1.62-1.51,3.22-3.04,4.84-4.56,.08-.08,.19-.13,.28-.19,.14,.09,.21,.23,.15,.39-.12,.28-.27,.55-.4,.83-1.08,2.16-2.16,4.32-3.24,6.48-.13,0-.2,.06-.23,.19,0,0,.03,0,.03,0-.47,.06-.69,.46-1,.73-4.14,3.7-8.27,7.4-12.4,11.11-6.45,5.8-12.89,11.6-19.34,17.4-.46,.41-.88,.88-1.55,.94Z"/>
  <path class="cls-5" d="M68.25,82.88c-.16,.23-.33,.19-.47,.18-.77-.02-1.55-.02-2.31-.1-2.34-.25-4.64-.76-6.85-1.58-2.78-1.02-5.53-2.13-8.29-3.21-.41-.16-.47-.29-.32-.71,.81-2.29,1.64-4.57,2.46-6.85,.51-1.41,1.01-2.83,1.51-4.25,.06-.16,.25-.21,.36-.1,.13,.14,.26,.29,.38,.43,4.36,5.2,8.73,10.4,13.09,15.6,.17,.2,.34,.39,.43,.58Z"/>
  <path class="cls-2" d="M226.14,123.07c-.42,.2-.79,.48-1.12,.81-.43,.44-.96,.57-1.57,.62-1.5,.11-2.9-.15-4.22-.92-.83-.49-1.71-.88-2.54-1.38-.66-.4-1.34-.76-2.08-.99-.21-.07-.44-.13-.57-.36,.09-.21,.27-.25,.46-.3,3.6-.97,7.19-1.94,10.79-2.91,2.41-.65,4.82-1.3,7.23-1.94,1.3-.35,2.61-.66,3.9-1.02,.32-.09,.7-.11,.92-.43,.98,.82,2.74,2.6,3.15,3.19-.25,.27-.6,.33-.92,.46-4.11,1.63-8.23,3.25-12.42,4.69-.36,.12-.76,.16-1.01,.49Z"/>
  <path class="cls-6" d="M203.94,102.26c.03-.61,.2-1.16,.74-1.49,.46-.28,.5-.68,.36-1.1-.17-.53-.17-1.06-.15-1.6,.65-.35,1.18-.84,1.69-1.36,.53-.55,1.09-1.08,1.62-1.63,.69-.7,1.51-1.15,2.46-1.39,0,.78-.31,1.5-.48,2.24-.65,2.84-1.26,5.69-2.09,8.49-.7,2.36-1.57,4.65-2.78,6.8-.36,.64-.74,1.26-1.37,1.67,0-2.5,0-5.01,0-7.51,0-1.04,0-2.08,0-3.12Z"/>
  <path class="cls-4" d="M210.66,93.7c-.95,.23-1.78,.68-2.46,1.39-.54,.55-1.09,1.08-1.62,1.63-.51,.53-1.04,1.01-1.69,1.36-.08-2.72-.16-5.44-.23-8.17-.03-1.04-.02-2.07-.02-3.11,0-.19,0-.38,.01-.58,.02-.27,.17-.42,.44-.42,.54,0,1.07,0,1.61-.01,1.18,.08,2.36,.15,3.54,.24,.48,.04,.5,.06,.5,.57,0,1.8,.01,3.59,0,5.39,0,.57,.09,1.15-.08,1.71Z"/>
  <path class="cls-6" d="M189.09,69.98c.39,1.16,.54,2.36,.5,3.59-.26,0-.4,.16-.55,.36-1.2,1.59-2.42,3.16-3.63,4.74-1.45,1.88-2.9,3.76-4.35,5.63-.26,.33-.54,.65-.76,1.01-.29,.48-.65,.62-1.16,.39-.14-.06-.3-.08-.44-.12,.25-.64,.46-1.29,.75-1.91,.97-2.07,1.97-4.13,2.96-6.19,1.12-.74,2.14-1.62,3.07-2.59,1.13-1.17,2.07-2.47,2.92-3.86,.22-.36,.46-.7,.69-1.05Z"/>
  <path class="cls-5" d="M204.4,82.33c0-.08,0-.15,0-.23-.06-3.65-.29-7.3-.2-10.95,.01-.54,.02-1.08,.03-1.62,1.5,1.66,2.73,3.49,3.65,5.53,.14,.31,.24,.65,.33,.98,.41,1.51,.15,2.88-.91,4.07-.82,.92-1.81,1.64-2.9,2.22Z"/>
  <path class="cls-6" d="M82.15,44.41c-.05-.04-.15-.12-.14-.13,.09-.13,.18-.08,.26,.02-.04,.04-.07,.07-.11,.11Z"/>
  <path class="cls-5" d="M95.01,49.38c-.2,.03-.27-.09-.3-.26,.13,.05,.26,.1,.3,.26Z"/>
  <path class="cls-2" d="M156.28,126.79c.21,.02,.35,.11,.42,.33,.39,1.21,.78,2.42,1.17,3.62,.14,.44,.29,.87,.45,1.3,.06,.15,.21,.25,.37,.2,.68-.21,1.38-.08,2.07-.14,.67-.06,1.31,.1,1.93,.28,1,.29,1.74,.95,2.35,1.78,.7,.95,1.06,2.04,1.37,3.16,.19,.7,.34,1.42,.51,2.13,.29,1.2,.67,2.37,1.16,3.5-1.98-.43-3.97-.87-5.95-1.28-1.69-.35-3.39-.65-5.07-1.03-2.73-.62-5.45-1.28-8.18-1.92-1.38-.33-2.75-.72-4.14-.98-1.4-.26-2.82-.31-4.24-.34-2.09-.06-4.14-.42-5.98-1.47-1.13-.64-2.15-1.42-3.02-2.45-1.13-1.34-2.01-2.81-2.79-4.36-.88-1.76-1.75-3.52-2.62-5.28-.14-.27-.25-.56-.36-.85-.05-.13,.13-.31,.27-.29,1.29,.18,2.57,.38,3.86,.56,.8,.11,1.6,.17,2.4,.29,.8,.11,1.58,.27,2.38,.38,.83,.12,1.67,.2,2.51,.31,.76,.09,1.52,.17,2.28,.3,.98,.16,1.96,.36,2.96,.39,.54,.02,1.05,.22,1.59,.25,.91,.06,1.82,.26,2.73,.38,.84,.11,1.68,.19,2.51,.29,.91,.12,1.82,.25,2.73,.38,.84,.11,1.67,.26,2.51,.3,.62,.03,1.2,.32,1.82,.24Z"/>
  <path class="cls-2" d="M159.24,108.04c.1-.71-.09-1.35-.39-2-.32-.72-.75-1.31-1.28-1.88-1.88-2.05-3.26-4.4-3.78-7.16-.24-1.27-.56-2.57-.13-3.88,.16-2.34,.96-4.49,1.88-6.63,.82-1.91,1.8-3.75,2.72-5.62,.72-1.45,1.41-2.91,2.01-4.42,.03-.07,.1-.11,.15-.17,.24-.06,.21,.15,.26,.27,.06,.14,.11,.29,.15,.44,.24,1.05,.48,2.1,.71,3.15,.43,1.95,.84,3.91,1.29,5.85,.11,.48,.07,1.01,.36,1.45,0,.98,.32,1.89,.67,2.78,.58,1.45,1.45,2.67,2.75,3.6,.98,.7,2.05,1.19,3.18,1.57,1.56,.52,3.13,1.04,4.64,1.71,.88,.39,1.78,.7,2.68,1.05-.14,1.64,.2,3.22,.63,4.77,.59,2.11,1.41,4.15,2.17,6.21,.13,.35,.33,.69,.27,1.09-.5,.18-.76-.24-1.09-.45-1.44-.9-2.73-1.99-4.02-3.1-1.69-1.45-3.36-2.93-5.24-4.15-1.53-.99-3.17-1.73-4.91-2.26-.22-.07-.45-.14-.69,.06,.26,.85,.83,1.54,1.27,2.3,1.08,1.87,2.19,3.71,3.28,5.57,.1,.17,.18,.34,.26,.52,.12,.28,.03,.46-.27,.48-.27,.02-.54,.02-.81,.03-.5,.01-1,0-1.49,.16-.25,.08-.53,.06-.8,.07-.61,.02-1.23-.03-1.83,.19-.1,.04-.23,.04-.34,.04-.85,0-1.69,.04-2.52,.22-.33,.07-.69,.02-1.04,.03,.01-.32-.17-.56-.3-.83-.16-.34-.38-.64-.42-1.02Z"/>
  <path class="cls-2" d="M170.61,143c.89-.55,1.92-.74,2.89-1.07,1.24-.41,2.5-.74,3.75-1.1,.33-.1,.67-.17,1-.27,.29-.09,.42,.06,.54,.28,.13,.23,.12,.44-.1,.61-.15,.11-.33,.2-.5,.29-1.34,.75-2.67,1.52-4.03,2.23-.68,.35-1.06,.85-1.2,1.57,0,.04-.02,.08-.02,.11-.13,1.07-.62,1.93-1.47,2.62-.51,.41-.94,.91-1.41,1.36-.17,.17-.35,.3-.6,.3-1.33,.29-2.69,.11-4.02,.27-1.08,.13-2.14,.17-3.22,.19-.23,0-.46,.05-.68,.12-.46,.14-.91,.1-1.36,.08-.09-.21,.02-.31,.16-.39,2.08-1.31,4.16-2.62,6.24-3.94,1.36-.86,2.72-1.74,4.08-2.61,.34-.22,.33-.22-.07-.66Z"/>
  <path class="cls-2" d="M213.71,152.23c1.2-.09,2.16,.38,2.95,1.26,.2,.23,.45,.41,.67,.62,.04,.4,.27,.72,.45,1.05,1.2,2.23,2.33,4.51,3.76,6.61,.52,.76,1.03,1.53,1.56,2.29,.29,.42,.46,.88,.63,1.35,.2,.58,.05,1.07-.3,1.51-.26,.33-.57,.63-.98,.79-1.11,.44-2.23,.84-3.4,1.05-3.59-.85-6.94-2.27-10.09-4.16-.16-.1-.34-.19-.52-.26-.19-.08-.38-.04-.54,.09-.06,.05-.12,.09-.18,.15-1.08,1.21-2.41,2.15-3.56,3.3-1,1-1.76,2.13-2.11,3.51-.14,.57-.65,.67-1.04,.23-.18-.2-.33-.43-.44-.67-.52-1.07-1.13-2.1-1.54-3.23-.13-.35-.39-.4-.6-.11-.41,.56-.79,1.14-1.18,1.71-1.6,2.35-3.2,4.71-4.79,7.07-.09,.13-.15,.27-.25,.39-.19,.24-.48,.31-.72,.14-.38-.26-.74-.55-1.09-.84-.24-.2-.44-.43-.66-.65-2.33-2.24-4.61-4.54-7.01-6.71-1.49-1.34-2.89-2.77-4.34-4.15-.28-.26-.61-.46-.9-.72-.28-.25-.62-.48-.64-.92,.45-.73,1.14-1.24,1.76-1.81,.14-.13,.32-.21,.46-.34,1.05-.96,2.09-1.93,3.15-2.88,1.23-1.1,2.48-2.19,3.72-3.28,.08-.07,.2-.11,.35-.19,.58,.88,.87,1.89,1.36,2.79,.48,.88,.9,1.79,1.35,2.69,.46,.93,.93,1.86,1.39,2.79,.45,.9,.88,1.8,1.34,2.69,.47,.91,.87,1.86,1.4,2.72,.34-.11,.39-.36,.47-.56,.34-.94,.64-1.9,.6-2.92-.04-1.15-.03-2.3-.16-3.45-.18-1.64-.43-3.28-.3-4.95,.02-.23,0-.46,.11-.68,.07-.13,.29-.19,.38-.07,.13,.19,.25,.39,.36,.59,1.12,2.15,2.23,4.31,3.36,6.46,.29,.55,.6,1.07,.91,1.61,.15,.27,.35,.35,.67,.27,1.01-.25,1.06-.29,.77-1.33-.51-1.81-1.04-3.62-1.57-5.43-.56-1.92-1.13-3.83-1.7-5.75-.05-.18-.1-.37-.02-.56,.16-.15,.27-.01,.38,.08,1.31,1.07,2.62,2.15,3.93,3.22,1.37,1.12,2.74,2.24,4.11,3.36,.69,.56,1.37,1.11,2.06,1.67,.15,.12,.29,.26,.45,.37,.22,.15,.49,.06,.56-.17,.02-.07,.03-.15,.04-.23,.07-.8,.48-1.46,.91-2.09,.43-.63,.93-1.22,1.48-1.76,.63-.61,1.26-1.24,1.79-1.96,.37-.5,.63-1.06,.96-1.58Z"/>
  <path class="cls-3" d="M180.4,121.87c.3-.26,.57-.13,.83-.15,.35-.02,.7,.01,1.04-.02,2.05-.22,2.81-1.25,3.18-2.69,.25-.98,.23-1.99,.43-2.97,.07-.38,.13-.76,.25-1.12,.22-.69,.36-.79,1.07-.82,1.21-.04,2.38,.17,3.51,.56,1.06,.36,2.04,.89,2.98,1.51,1.29,.85,2.48,1.82,3.68,2.79,1.08,.87,2.17,1.73,3.35,2.46,1.15,.71,2.38,1.25,3.71,1.55,.92,.2,1.84,.17,2.76,.15,.31,0,.62-.05,.92-.04,.09,0,.22,.07,.21,.22-.01,.15,0,.31-.04,.46-.5,2.06-1.08,4.09-1.95,6.03-.75,1.66-1.69,3.19-2.98,4.51-1.82,1.86-4.08,2.85-6.58,3.37-2.35,.49-4.74,.51-7.13,.47-.4,0-.65-.16-.83-.5-.54-1.02-1.09-2.04-1.64-3.05-2.11-3.94-4.22-7.87-6.33-11.81-.16-.3-.3-.6-.44-.89Z"/>
  <path class="cls-6" d="M177.13,98.14c-.89-.35-1.8-.66-2.68-1.05-1.51-.67-3.08-1.18-4.64-1.71-1.13-.38-2.2-.87-3.18-1.57-1.3-.92-2.18-2.15-2.75-3.6-.35-.89-.66-1.8-.67-2.78,1.84,1.04,3.68,2.08,5.51,3.12,1.33,.76,2.65,1.54,3.98,2.31,.96,.56,1.93,1.1,2.89,1.67,.5,.3,.99,.41,1.51,.06,.07,.13,.2,.26,.2,.39,.01,.88,.07,1.75,.25,2.62,.03,.15,0,.31,0,.46-.14,.02-.28,.04-.42,.06Z"/>
  <path class="cls-6" d="M164.81,118.93s.07,.05,.11,.07c-.02,0-.05,0-.06,0-.02-.02-.03-.05-.04-.08,0,0-.02,.02-.02,.02Z"/>
  <path class="cls-3" d="M124.06,211.29c.02-.12,.1-.19,.23-.19-.05,.09-.06,.24-.23,.19Z"/>
  <path class="cls-1" d="M182.65,90.68s-.1-.04-.09-.04c.02-.08,.05-.06,.09,.05,0,0,0,0,0,0Z"/>
</svg>